<svg width="1707" height="1707" viewBox="0 0 1707 1707" fill="none" xmlns="http://www.w3.org/2000/svg">
<g id="clock">
<g id="clock2 1">
<g id="Group">
<path id="Vector" d="M803.999 1.33336C771.466 3.33336 726.666 8.93336 696.666 14.8C682.133 17.6 680.933 17.8667 655.333 24C461.866 70.8 287.599 186.267 167.066 347.333C107.199 427.333 60.7994 521.067 33.466 616.667C10.666 696.667 0.799349 768.4 0.666016 853.333C0.666016 898.4 1.73268 915.733 6.79935 957.333C22.7994 1088.4 69.3327 1214.8 141.999 1324.8C185.066 1390 235.466 1447.2 295.333 1498.8C351.466 1547.2 406.399 1583.73 473.999 1617.33C514.933 1637.73 540.933 1648.67 578.533 1661.33C649.066 1684.93 703.066 1696.13 787.333 1704.27C814.266 1706.8 896.266 1706.4 927.333 1703.6C1037.47 1693.33 1128.67 1668.4 1223.73 1622.53C1466 1505.73 1635.73 1287.07 1689.2 1023.33C1695.73 990.933 1700 960.933 1704.27 916.667C1706.8 890.267 1706.4 807.733 1703.6 777.6C1688.27 614.8 1634.4 472.667 1539.47 345.333C1495.87 286.8 1433.2 223.6 1373.33 177.867C1252.93 85.7334 1104.13 24.5334 957.333 6.66669C911.599 1.20003 844.933 -1.19998 803.999 1.33336ZM883.599 20C1045.07 26.2667 1187.07 72.2667 1320.67 161.733C1387.07 206.267 1456 269.733 1507.47 334C1593.07 440.667 1650.53 569.2 1674.8 708C1684 761.067 1687.2 804.533 1686.27 866.667C1685.47 920.667 1683.87 941.067 1676.53 988C1654.4 1128.93 1594.93 1264 1506.13 1374.67C1478.13 1409.6 1432.53 1456.8 1399.33 1485.2C1298.27 1571.73 1178 1634 1054.67 1663.87C896.133 1702.13 733.199 1694.53 579.333 1641.73C537.066 1627.33 477.199 1599.73 436.666 1575.87C302.666 1497.47 191.866 1382.4 117.333 1244C33.1994 1088 2.13268 909.733 28.1327 732.667C58.7994 523.467 168.399 332.133 331.999 202.133C473.599 89.6 641.999 26.6667 819.333 20.1334C833.999 19.6 846.933 19.0667 847.999 18.9334C849.066 18.8 865.199 19.3334 883.599 20Z" fill="black"/>
<path id="Vector_2" d="M843.866 33.9998C842 35.0665 839.2 37.5998 837.866 39.5998C835.466 43.0665 835.333 46.9332 834.933 101.333C834.666 154.667 834.8 159.733 836.933 163.867C843.6 176.8 861.2 178 869.866 166.267C872.533 162.533 872.666 161.067 872.666 104.267C872.666 40.1332 872.533 39.5998 864.666 34.6665C859.6 31.4665 849.066 31.1998 843.866 33.9998Z" fill="black"/>
<path id="Vector_3" d="M443.999 141.067C437.732 144.133 433.332 151.067 433.332 157.733C433.332 162.133 437.465 170.267 457.465 205.867C490.399 264.133 489.865 263.333 495.465 266C507.599 271.733 524.532 259.067 522.132 246.133C521.732 243.733 508.799 219.733 493.599 192.667C469.865 150.667 465.199 143.2 461.199 141.067C455.599 138 449.999 138 443.999 141.067Z" fill="black"/>
<path id="Vector_4" d="M1246.4 140.666C1242 143.2 1242.27 142.533 1212.13 198.533C1190.8 238.267 1186.67 246.8 1186.67 251.467C1186.67 261.6 1196.13 270.667 1206.93 270.667C1215.6 270.667 1219.07 265.733 1244.4 218.667C1278.4 155.2 1276.67 159.466 1272.8 150.133C1269.07 141.066 1254.8 135.866 1246.4 140.666Z" fill="black"/>
<path id="Vector_5" d="M893.999 228.8C892.532 229.2 887.332 230.667 882.399 232.134L873.332 234.8V241.334C873.332 245.067 873.599 248 873.865 248C874.132 248 877.865 246.4 882.132 244.534C891.332 240.4 903.065 239.067 909.599 241.2C922.132 245.334 925.465 259.6 916.799 271.733C914.932 274.4 904.265 286 893.332 297.6C874.265 317.467 873.332 318.667 873.332 323.867V329.333H904.665H935.999V324V318.667H912.532H889.065L908.399 298.533C930.932 275.067 935.199 268.4 935.199 256.667C935.065 244.667 929.332 236 918.265 231.334C912.932 229.2 898.665 227.6 893.999 228.8Z" fill="black"/>
<path id="Vector_6" d="M801.467 232.8C796.667 233.867 792.533 234.933 792.267 235.333C791.867 235.6 791.6 238.4 791.467 241.333C791.333 247.467 791.2 247.467 804 244.667C808.8 243.6 813.333 242.8 814 242.667C814.8 242.667 815.2 255.867 815.067 280.267L814.8 318L804 318.4L793.333 318.8V324V329.333H822H850.667V324V318.8L839.733 318.4L828.667 318V274.267V230.667L819.333 230.8C814.267 230.933 806.133 231.733 801.467 232.8Z" fill="black"/>
<path id="Vector_7" d="M145.999 437.467C137.599 444.933 136.533 457.467 143.733 464.267C145.733 466.267 169.599 480.133 196.799 495.2C240.933 519.733 246.933 522.667 252.399 522.667C265.333 522.667 274.666 507.6 269.199 495.467C267.066 490.933 265.333 489.867 210.666 459.6C167.999 436 162.666 433.333 157.066 433.333C151.866 433.333 149.866 434.133 145.999 437.467Z" fill="black"/>
<path id="Vector_8" d="M1500.53 459.467C1476.4 473.867 1454.13 487.067 1451.07 488.933C1447.87 490.667 1443.87 494 1442 496.267C1435.07 504.533 1439.47 520.4 1450.13 524.8C1455.87 527.2 1459.2 527.2 1464.4 524.533C1478.4 517.333 1561.33 467.067 1564.27 463.867C1571.47 456.267 1570.8 446.533 1562.67 438.4C1558.27 433.867 1556.93 433.333 1551.07 433.333C1544.8 433.333 1541.73 434.933 1500.53 459.467Z" fill="black"/>
<path id="Vector_9" d="M1434 796.933C1420.93 799.867 1421.33 799.6 1421.33 806V811.867L1427.73 810C1437.33 807.333 1446 806.4 1453.07 807.467C1466.53 809.467 1472.67 822.8 1464.4 832C1461.47 835.067 1458.8 836.4 1452.8 837.467C1448.4 838.267 1442.8 838.667 1440.4 838.4C1436 837.867 1436 837.867 1436 843.6V849.333H1445.73C1457.07 849.333 1463.2 851.867 1467.6 858.533C1473.6 867.333 1470 879.333 1460 884.267C1453.33 887.733 1435.6 887.467 1426.4 884C1422.53 882.533 1419.2 881.333 1418.93 881.333C1418.67 881.333 1418.67 884.133 1418.93 887.6L1419.33 894L1428.67 896.4C1447.73 901.333 1469.87 896.933 1477.6 886.533C1486.8 874.267 1486 858.667 1475.87 849.333C1473.47 847.2 1469.73 845.067 1467.47 844.533L1463.47 843.6L1469.73 840.533C1478.13 836.267 1481.87 829.067 1481.07 819.067C1480.13 808.4 1473.07 800.533 1461.47 797.333C1456.67 796 1439.07 795.733 1434 796.933Z" fill="black"/>
<path id="Vector_10" d="M240 802.133C233.867 804.8 228.4 810 224.933 816.667C222.667 820.933 222 824.267 222 833.333C222 846.4 224.533 852.667 232.533 859.733C243.067 868.933 261.867 869.067 272 859.733C274.4 857.6 276.4 856 276.667 856.267C277.733 857.6 272.933 874.533 270.133 879.333C264 889.6 248.8 893.6 234.667 888.667C231.6 887.6 228.8 886.667 228.533 886.667C228.267 886.667 228 889.333 228 892.667C228 898.533 228.133 898.533 233.733 900.133C236.8 901.067 243.867 901.867 249.333 901.867C257.6 901.867 260.533 901.2 266.133 898.267C281.067 890.533 288.133 877.067 289.067 854.267C290.267 826 283.067 808.533 267.733 802.133C261.333 799.467 246.133 799.467 240 802.133ZM264.933 813.333C270.933 816.933 273.733 822.933 273.733 832.667C273.733 847.6 266.8 856 254.667 856C251.067 856 246.933 854.933 244.4 853.333C232.933 846.4 231.6 825.467 242 815.067C245.867 811.2 247.2 810.667 253.6 810.667C258.267 810.667 262.133 811.6 264.933 813.333Z" fill="black"/>
<path id="Vector_11" d="M39.9998 837.733C33.4665 842 31.8665 846 32.3998 855.2C32.7998 862.267 33.3331 863.467 37.7331 867.467L42.6665 872H102.133C159.733 872 161.866 871.867 166.133 869.333C171.733 865.867 175.333 856.933 174.133 850C173.6 847.333 171.2 842.933 168.666 840.267L164.266 835.333L104.4 834.933L44.5331 834.533L39.9998 837.733Z" fill="black"/>
<path id="Vector_12" d="M1540.4 837.333C1528.8 844.267 1529.47 864.267 1541.33 870.267C1543.87 871.6 1559.2 872 1604 872C1648.8 872 1664.13 871.6 1666.67 870.267C1678.53 864.267 1679.2 844.267 1667.6 837.333C1663.6 834.8 1660.53 834.667 1604 834.667C1547.47 834.667 1544.4 834.8 1540.4 837.333Z" fill="black"/>
<path id="Vector_13" d="M243.333 1182.53C230.267 1188.8 144.667 1241.07 142.4 1244C138.4 1249.47 137.867 1256.27 141.2 1263.2C144.933 1270.67 149.6 1273.87 157.333 1273.87C162.8 1273.87 168 1271.07 212.667 1244.4C239.867 1228.13 263.467 1213.33 265.333 1211.33C269.733 1206.67 270 1195.47 265.867 1189.87C259.333 1180.93 251.733 1178.53 243.333 1182.53Z" fill="black"/>
<path id="Vector_14" d="M1449.6 1186.67C1442.8 1190.93 1439.73 1196.8 1440.4 1204.93C1440.67 1209.33 1441.87 1212.93 1443.33 1214.67C1444.8 1216.27 1468 1230.13 1495.2 1245.6C1537.07 1269.6 1545.33 1273.73 1550.13 1273.87C1559.47 1274.13 1567.87 1266.13 1568.93 1255.87C1570.13 1245.07 1568.67 1244 1513.47 1212.4C1459.73 1181.73 1458.4 1181.33 1449.6 1186.67Z" fill="black"/>
<path id="Vector_15" d="M857.333 1390.53C851.2 1392.4 846 1395.73 841.2 1400.93C831.733 1410.8 828 1422.27 828 1442C828 1465.2 834.133 1480.4 846.533 1487.73C851.867 1490.8 854.133 1491.33 863.467 1491.33C873.067 1491.33 874.933 1490.93 880.8 1487.33C890 1481.6 894.8 1473.2 895.6 1461.73C896.8 1445.47 891.067 1433.6 879.2 1427.87C867.2 1422.13 849.467 1424.93 843.467 1433.6L841.333 1436.53V1432.53C841.333 1426.27 845.2 1414.53 848.8 1409.6C850.667 1407.33 854 1404.27 856.4 1403.07C862 1400.13 877.467 1400.13 884.4 1403.07L889.467 1405.2L889.067 1398.93C888.667 1392.93 888.533 1392.67 883.333 1391.2C877.333 1389.33 862.4 1389.07 857.333 1390.53ZM873.2 1438.53C880.133 1443.47 882 1447.6 882 1457.73C881.867 1474.13 875.067 1482 861.6 1480.93C849.867 1480.13 844 1472.53 844 1458C844 1448.93 845.733 1443.73 850.4 1439.6C856.133 1434.4 866.8 1433.87 873.2 1438.53Z" fill="black"/>
<path id="Vector_16" d="M1192.8 1438.53C1187.33 1442.13 1183.87 1448.27 1183.73 1454.53C1183.73 1459.07 1187.87 1467.33 1212 1510.27C1227.47 1538 1242 1562.27 1244.13 1564.27C1251.6 1571.33 1265.87 1568.27 1272 1558.4C1277.33 1549.6 1276.8 1548.4 1246 1493.33C1229.87 1464.53 1215.6 1440.67 1213.6 1439.07C1208.93 1435.07 1198.4 1434.93 1192.8 1438.53Z" fill="black"/>
<path id="Vector_17" d="M499.999 1441.07C495.999 1442.93 490.665 1450.93 464.399 1493.33C436.532 1538.27 433.465 1543.87 433.332 1549.07C433.332 1556.67 436.665 1562.13 443.332 1565.33C449.999 1568.53 454.799 1568.67 460.799 1565.87C465.599 1563.6 465.865 1563.33 509.199 1492.8C529.599 1459.73 530.532 1456.93 525.332 1448.4C522.399 1443.47 513.865 1438.67 508.399 1438.67C506.399 1438.67 502.532 1439.73 499.999 1441.07Z" fill="black"/>
<path id="Vector_18" d="M849.333 1531.6C843.733 1532.67 837.599 1538.27 835.999 1543.73C835.199 1546.8 834.666 1570 834.666 1604.4C834.666 1664.67 834.799 1666.13 841.866 1671.6C849.999 1678 863.599 1676 869.733 1667.47C872.666 1663.33 872.666 1663.33 872.666 1603.33C872.666 1546.67 872.533 1543.07 870.133 1539.6C866.133 1533.6 857.066 1530.13 849.333 1531.6Z" fill="black"/>
</g>
<circle id="Ellipse 30" cx="873.5" cy="872.5" r="52.5" fill="black"/>
</g>
</g>
</svg>
